<?xml version="1.0" standalone="no"?>
<!DOCTYPE svg PUBLIC "-//W3C//DTD SVG 20010904//EN"
 "http://www.w3.org/TR/2001/REC-SVG-20010904/DTD/svg10.dtd">
<svg version="1.0" xmlns="http://www.w3.org/2000/svg"
 width="700.000000pt" height="700.000000pt" viewBox="0 0 700.000000 700.000000"
 preserveAspectRatio="xMidYMid meet">
<metadata>
Created by potrace 1.14, written by Peter Selinger 2001-2017
</metadata>
<g transform="translate(0.000000,700.000000) scale(0.100000,-0.100000)"
fill="#000000" stroke="none">
<path d="M3457 6994 c-1 -1 -65 -4 -142 -8 -120 -4 -242 -17 -395 -41 -375
-59 -802 -212 -1155 -413 -163 -93 -426 -278 -529 -371 -22 -20 -66 -61 -100
-91 -351 -320 -668 -764 -841 -1180 -15 -36 -33 -78 -40 -95 -32 -73 -116
-327 -139 -425 -20 -81 -38 -161 -42 -190 -3 -19 -7 -42 -9 -50 -8 -28 -36
-225 -40 -285 -3 -33 -7 -82 -10 -110 -6 -58 -7 -414 -1 -465 2 -19 7 -71 10
-115 4 -44 8 -89 10 -100 2 -11 7 -45 11 -75 4 -30 11 -71 15 -90 5 -19 11
-51 14 -70 5 -32 42 -188 66 -283 23 -87 107 -319 151 -414 10 -24 19 -45 19
-48 0 -12 115 -235 168 -325 48 -84 177 -283 203 -314 5 -6 39 -49 76 -96 221
-282 479 -522 775 -723 342 -233 693 -393 1088 -498 79 -21 210 -50 247 -54
12 -2 34 -6 50 -9 15 -3 48 -8 73 -11 25 -3 52 -8 60 -10 8 -2 51 -7 95 -10
44 -3 98 -8 120 -11 48 -5 415 -5 465 0 19 2 72 7 116 10 45 4 93 9 105 11 13
2 69 11 124 21 55 9 109 18 120 20 11 3 43 9 70 15 276 54 682 212 969 376
169 98 405 263 525 369 147 129 238 218 341 335 41 46 77 86 80 89 3 3 30 37
60 75 187 237 349 506 467 780 35 81 118 305 133 360 11 39 51 186 56 205 15
59 38 173 49 245 2 11 8 49 14 85 9 57 15 116 27 260 5 61 5 434 0 470 -3 19
-7 64 -11 100 -5 64 -8 88 -20 173 -4 23 -9 58 -11 77 -3 19 -12 63 -20 98 -7
34 -16 74 -19 90 -45 254 -217 689 -386 978 -46 80 -177 280 -200 308 -5 6
-30 38 -55 71 -280 367 -670 702 -1082 927 -68 37 -251 128 -257 128 -3 0 -24
9 -48 19 -152 70 -488 180 -599 196 -23 4 -46 9 -50 11 -15 10 -199 40 -308
50 -30 3 -61 7 -68 9 -15 5 -391 23 -395 19z m318 -887 c146 -20 140 -19 260
-43 269 -53 576 -175 826 -327 91 -55 253 -167 269 -186 3 -3 28 -24 55 -46
83 -65 266 -253 352 -360 295 -366 488 -805 553 -1255 6 -41 13 -88 16 -105
13 -74 11 -447 -2 -565 -37 -329 -129 -633 -282 -930 -35 -69 -68 -126 -73
-128 -5 -2 -9 -8 -9 -14 0 -14 -91 -147 -179 -262 -101 -133 -307 -340 -431
-436 -25 -19 -47 -37 -50 -41 -5 -7 -161 -111 -225 -151 -199 -124 -495 -246
-735 -302 -106 -25 -119 -28 -200 -41 -25 -4 -54 -9 -65 -11 -127 -25 -570
-25 -715 0 -14 3 -41 7 -60 10 -52 8 -85 15 -159 32 -36 9 -77 18 -91 21 -103
19 -425 145 -565 221 l-70 38 0 2274 0 2273 100 53 c236 125 603 242 845 269
30 3 84 9 120 14 63 7 455 6 515 -2z"/>
</g>
</svg>
