<?xml version="1.0" standalone="no"?>
<!DOCTYPE svg PUBLIC "-//W3C//DTD SVG 20010904//EN"
 "http://www.w3.org/TR/2001/REC-SVG-20010904/DTD/svg10.dtd">
<svg version="1.0" xmlns="http://www.w3.org/2000/svg"
 width="1243.000000pt" height="1243.000000pt" viewBox="0 0 1243.000000 1243.000000"
 preserveAspectRatio="xMidYMid meet">
<metadata>
Created by potrace 1.14, written by Peter Selinger 2001-2017
</metadata>
<g transform="translate(0.000000,1243.000000) scale(0.100000,-0.100000)"
fill="#000000" stroke="none">
<path d="M5997 12424 c-1 -1 -63 -5 -137 -8 -74 -4 -148 -9 -165 -11 -16 -2
-64 -6 -105 -10 -41 -3 -84 -8 -95 -10 -11 -2 -45 -7 -76 -10 -31 -3 -65 -7
-75 -9 -11 -2 -41 -7 -69 -10 -152 -20 -470 -86 -675 -141 -473 -127 -973
-329 -1384 -559 -65 -36 -122 -66 -127 -66 -5 0 -9 -4 -9 -10 0 -5 -4 -10 -9
-10 -5 0 -58 -30 -118 -67 -254 -158 -502 -338 -750 -546 -164 -137 -512 -476
-624 -607 -35 -41 -71 -82 -79 -90 -9 -8 -34 -37 -55 -65 -47 -59 -76 -94 -90
-109 -6 -6 -57 -73 -114 -150 -374 -501 -671 -1052 -873 -1621 -44 -125 -113
-335 -123 -375 -2 -8 -13 -51 -25 -95 -23 -81 -76 -299 -85 -345 -2 -14 -9
-50 -15 -80 -17 -89 -48 -271 -55 -325 -3 -27 -8 -61 -10 -75 -16 -111 -29
-248 -42 -455 -13 -205 -7 -693 11 -850 3 -22 7 -73 10 -113 4 -40 8 -87 11
-105 2 -17 7 -54 10 -82 3 -27 7 -61 10 -75 2 -14 7 -43 10 -65 6 -42 41 -246
49 -280 2 -11 11 -54 20 -95 46 -220 174 -673 216 -765 5 -11 27 -67 48 -125
230 -620 602 -1253 1053 -1790 247 -294 607 -647 863 -845 22 -16 62 -48 90
-71 76 -60 351 -255 431 -305 39 -24 72 -46 75 -49 6 -7 76 -49 188 -111 20
-12 42 -24 47 -29 12 -8 188 -102 290 -153 519 -263 1133 -462 1730 -563 110
-19 115 -20 190 -29 33 -4 67 -9 75 -10 8 -2 44 -6 80 -9 36 -4 88 -9 115 -12
120 -14 384 -27 565 -27 141 0 441 11 481 18 13 2 67 6 119 10 52 4 97 8 100
10 3 1 37 6 75 9 93 9 129 14 195 26 30 5 73 12 95 15 22 3 51 8 65 11 14 3
36 8 50 10 14 2 36 7 50 10 14 3 35 8 48 10 35 6 47 9 222 49 42 9 215 57 290
80 47 15 92 28 100 30 76 19 392 136 565 210 416 178 934 474 1250 717 27 21
55 42 60 46 331 248 710 606 980 927 37 44 78 92 91 107 13 15 24 32 24 37 0
5 4 11 9 13 5 1 50 57 100 123 50 66 94 125 98 130 4 6 49 71 99 145 294 436
551 951 718 1437 40 119 112 350 121 392 2 9 13 52 25 96 11 44 22 89 24 100
2 11 9 38 14 60 11 38 36 157 47 220 2 17 7 41 10 55 3 14 7 39 9 55 6 40 15
98 26 165 5 30 12 82 15 115 4 33 8 71 10 85 2 14 7 59 10 100 4 41 8 91 10
110 25 232 20 804 -9 1055 -3 28 -8 79 -12 115 -3 36 -8 73 -10 84 -2 10 -6
42 -8 70 -3 28 -7 60 -10 71 -2 11 -7 43 -10 70 -22 152 -104 523 -157 710
-128 445 -343 964 -548 1319 -28 49 -51 90 -51 92 0 5 -150 249 -190 309 -511
766 -1172 1405 -1940 1876 -218 133 -489 277 -685 363 -33 15 -67 31 -75 35
-76 41 -580 225 -745 271 -59 17 -385 100 -409 104 -12 2 -68 13 -126 25 -104
20 -152 29 -200 36 -14 2 -43 6 -65 10 -74 12 -90 14 -135 20 -61 8 -182 21
-285 30 -151 14 -726 29 -738 19z m428 -1559 c211 -10 282 -16 445 -40 14 -2
45 -6 70 -10 348 -49 792 -180 1150 -338 684 -301 1305 -781 1764 -1362 110
-138 104 -132 146 -190 19 -28 38 -51 42 -53 4 -2 8 -8 8 -14 0 -6 15 -31 34
-57 109 -148 318 -535 420 -780 132 -312 247 -703 291 -981 3 -19 10 -57 15
-85 5 -27 12 -75 15 -105 4 -30 8 -66 10 -80 20 -131 29 -298 29 -540 0 -203
-8 -434 -19 -488 -1 -10 -6 -44 -9 -77 -4 -33 -9 -71 -11 -85 -2 -14 -11 -70
-20 -125 -28 -178 -94 -460 -147 -625 -26 -82 -105 -305 -123 -345 -7 -16 -30
-70 -51 -120 -61 -146 -142 -303 -269 -528 -57 -100 -305 -462 -334 -487 -3
-3 -33 -39 -66 -80 -32 -41 -64 -80 -70 -86 -5 -6 -44 -49 -85 -94 -124 -138
-259 -269 -455 -439 -24 -21 -129 -104 -245 -194 -9 -7 -63 -45 -122 -84 -441
-301 -949 -532 -1458 -662 -165 -42 -338 -80 -392 -85 -18 -2 -47 -6 -63 -9
-38 -8 -84 -14 -160 -22 -33 -4 -70 -8 -83 -10 -160 -26 -810 -25 -944 0 -11
2 -47 7 -81 10 -69 7 -74 8 -207 30 -522 88 -1009 256 -1472 509 -76 41 -88
51 -89 74 0 15 0 1829 -1 4031 0 3363 2 4005 13 4016 15 15 330 177 414 213
28 11 75 32 106 46 214 94 573 205 849 261 77 16 243 45 290 50 30 3 62 8 70
10 8 2 51 7 95 11 44 3 88 8 98 10 10 2 91 6 180 10 89 3 163 7 164 8 2 2 70
0 258 -9z"/>
</g>
</svg>
