<?xml version="1.0" encoding="UTF-8"?>
<svg id="V1" xmlns="http://www.w3.org/2000/svg" viewBox="0 0 172.06 42.71">
  <defs>
    <style>
      .cls-1 {
        fill: #333;
      }

      .cls-1, .cls-2 {
        stroke-width: 0px;
      }

      .cls-2 {
        fill: #fff;
      }
    </style>
  </defs>
  <rect class="cls-2" x="-9.72" y="-14.99" width="191.15" height="80.47"/>
  <g>
    <polygon class="cls-1" points="161.43 18.87 161.43 3.87 158.93 3.87 158.93 21.37 172.06 21.37 172.06 18.87 161.43 18.87"/>
    <polygon class="cls-1" points="124.18 18.87 124.18 13.47 134.21 13.47 134.21 10.97 124.18 10.97 124.18 6.37 134.61 6.37 134.61 3.87 121.68 3.87 121.68 21.37 134.81 21.37 134.81 18.87 124.18 18.87"/>
    <polygon class="cls-1" points="143.31 18.87 143.31 3.87 140.81 3.87 140.81 21.37 153.93 21.37 153.93 18.87 143.31 18.87"/>
    <polygon class="cls-1" points="113.18 3.87 113.18 16.59 99.22 2.62 99.22 21.37 101.72 21.37 101.72 8.66 115.68 22.62 115.68 3.87 113.18 3.87"/>
    <polygon class="cls-1" points="90.72 3.87 90.72 16.59 76.75 2.62 76.75 21.37 79.25 21.37 79.25 8.66 93.22 22.62 93.22 3.87 90.72 3.87"/>
    <path class="cls-1" d="m10,2.62C4.48,2.62,0,7.1,0,12.62s4.48,10,10,10,10-4.48,10-10S15.53,2.62,10,2.62Zm0,17.5c-4.14,0-7.5-3.36-7.5-7.5s3.36-7.5,7.5-7.5,7.5,3.36,7.5,7.5-3.36,7.5-7.5,7.5Z"/>
    <circle class="cls-1" cx="25.5" cy="6.37" r="2.5"/>
    <path class="cls-1" d="m62.25,2.62c-5.52,0-10,4.48-10,10s4.48,10,10,10,10-4.48,10-10-4.48-10-10-10Zm0,17.5c-4.14,0-7.5-3.36-7.5-7.5s3.36-7.5,7.5-7.5,7.5,3.36,7.5,7.5-3.36,7.5-7.5,7.5Z"/>
    <path class="cls-1" d="m38.25,2.62h-6.25s0,20,0,20h6.25c5.52,0,10-4.48,10-10s-4.48-10-10-10Zm0,17.5h-3.75V5.12h3.75c4.14,0,7.5,3.36,7.5,7.5s-3.36,7.5-7.5,7.5Z"/>
  </g>
  <g>
    <path class="cls-1" d="m121.68,27.54h2.65c1.78,0,3.8.02,5.26,1.36,1.05.97,1.76,2.51,1.76,4.44,0,1.29-.26,2.44-.79,3.37-1.42,2.43-3.51,2.59-6.54,2.59h-2.35v-11.75Zm3.41,9.76c.81,0,1.54-.06,2.06-.31,1.18-.55,1.73-1.73,1.73-3.58s-.58-3.11-1.88-3.61c-.49-.19-1.17-.28-1.89-.28h-1.02v7.77h1Z"/>
    <path class="cls-1" d="m132.46,35.05c0-2.51,1.6-4.34,4.14-4.34s3.92,1.75,3.92,4.55c0,.08,0,.24-.02.48h-5.71c0,1.23.49,2.15,1.83,2.15.78,0,1.23-.44,1.47-1.1h2.4c-.5,1.81-1.73,2.72-3.85,2.72-2.78,0-4.18-1.75-4.18-4.47Zm5.8-.87c-.05-1.2-.83-1.88-1.75-1.88s-1.75.68-1.8,1.88h3.55Z"/>
    <path class="cls-1" d="m141.52,36.62h2.33c0,.89.5,1.31,1.49,1.31.78,0,1.34-.34,1.34-.87,0-.58-.6-.83-1.36-1.02-.7-.18-1.55-.32-2.25-.66-.78-.37-1.39-.97-1.39-2.04,0-1.6,1.41-2.62,3.63-2.62s3.58.95,3.58,2.78h-2.27c-.05-.91-.5-1.2-1.39-1.2-.73,0-1.21.31-1.21.81,0,.68.57.84,2.57,1.26,1.7.36,2.49,1.18,2.49,2.44,0,1.67-1.41,2.7-3.72,2.7s-3.8-.95-3.84-2.9Z"/>
    <path class="cls-1" d="m150.57,27.54h2.28v2.2h-2.28v-2.2Zm0,3.4h2.28v8.35h-2.28v-8.35Z"/>
    <path class="cls-1" d="m154.81,39.9h2.36c.03.65.49,1.1,1.34,1.1,1.18,0,1.75-.76,1.75-2.3v-.87c-.7.89-1.64,1.25-2.49,1.25-1.89,0-3.37-1.47-3.37-4.03s1.47-4.26,3.5-4.26c1.04,0,1.88.31,2.51,1.18v-1.04h2.1v6.56c0,1.67-.08,2.1-.24,2.7-.42,1.59-1.73,2.41-3.79,2.41-2.23,0-3.51-1-3.67-2.7Zm5.41-4.84c0-1.46-.61-2.52-1.76-2.52-1.04,0-1.7,1.08-1.7,2.46s.68,2.28,1.7,2.28,1.76-.87,1.76-2.22Z"/>
    <path class="cls-1" d="m164.5,30.93h2.12v1.1c.6-.79,1.59-1.25,2.64-1.25,2.4,0,2.8,1.7,2.8,3.85v4.65h-2.28v-4.63c0-1.23-.21-2.15-1.34-2.15-1.07,0-1.65.71-1.65,2.65v4.13h-2.28v-8.35Z"/>
  </g>
</svg>