<?xml version="1.0" encoding="UTF-8"?>
<svg xmlns="http://www.w3.org/2000/svg" version="1.1" viewBox="0 0 1266 175">
  <defs>
    <style>
      .cls-1 {
        fill: #c6973f;
      }

      .cls-2 {
        fill: #333;
      }
    </style>
  </defs>
  <!-- Generator: Adobe Illustrator 28.6.0, SVG Export Plug-In . SVG Version: 1.2.0 Build 709)  -->
  <g>
    <g id="Layer_1">
      <g>
        <g>
          <path class="cls-2" d="M224.2,87.5c0-29.4,17.7-50,45-50s44.8,20,44.8,50-18.3,50-45,50-44.8-19.8-44.8-50ZM293.9,87.5c0-21.3-9.1-34.4-24.7-34.4s-24.9,13.5-24.9,34.4,9.4,34.4,24.7,34.4,24.9-14.5,24.9-34.4Z"/>
          <path class="cls-2" d="M325.4,80l7.7-22h-7.4v-18.5h19.6v20.2l-8.5,20.2h-11.4Z"/>
          <path class="cls-2" d="M359.8,39.5h21.7c14.5,0,31.1.1,43,11.1,8.6,7.9,14.4,20.5,14.4,36.2s-2.1,20-6.5,27.5c-11.6,19.8-28.7,21.2-53.4,21.2h-19.2V39.5ZM387.7,119.2c6.6,0,12.6-.5,16.8-2.5,9.7-4.5,14.2-14.2,14.2-29.2s-4.8-25.4-15.3-29.5c-4-1.6-9.5-2.2-15.5-2.2h-8.3v63.5h8.2Z"/>
          <path class="cls-2" d="M448.6,101.4c0-21.8,13.5-36,34.7-36s34.8,14.3,34.8,36-13.5,36-34.8,36-34.7-14.2-34.7-36ZM498.6,101.4c0-13.8-5.3-21.8-15.3-21.8s-15.2,8.2-15.2,21.8,5.3,21.8,15.2,21.8,15.3-8.3,15.3-21.8Z"/>
          <path class="cls-2" d="M531.1,67.3h17.3v9c4.9-6.5,13-10.2,21.6-10.2,19.6,0,22.9,13.9,22.9,31.5v38h-18.7v-37.8c0-10.1-1.7-17.6-11-17.6s-13.5,5.8-13.5,21.7v33.7h-18.7v-68.3Z"/>
          <path class="cls-2" d="M609.1,67.3h17.3v9c4.9-6.5,13-10.2,21.6-10.2,19.6,0,22.9,13.9,22.9,31.5v38h-18.7v-37.8c0-10.1-1.7-17.6-11-17.6s-13.5,5.8-13.5,21.7v33.7h-18.7v-68.3Z"/>
          <path class="cls-2" d="M683.2,100.9c0-20.5,13.1-35.4,33.9-35.4s32,14.3,32,37.2,0,2-.1,4h-46.7c0,10.1,4,17.6,14.9,17.6s10.1-3.6,12-9h19.6c-4.1,14.8-14.2,22.2-31.5,22.2s-34.1-14.3-34.1-36.5ZM730.6,93.7c-.4-9.8-6.7-15.3-14.3-15.3s-14.3,5.6-14.7,15.3h29Z"/>
          <path class="cls-2" d="M762.5,39.5h18.7v96h-18.7V39.5Z"/>
          <path class="cls-2" d="M798.2,39.5h18.7v96h-18.7V39.5Z"/>
          <path class="cls-1" d="M851,39.5h21.7c14.6,0,31.1.1,43,11.1,8.6,7.9,14.4,20.5,14.4,36.2s-2.1,20-6.5,27.5c-11.6,19.8-28.7,21.2-53.4,21.2h-19.2V39.5ZM878.9,119.2c6.6,0,12.6-.5,16.8-2.5,9.7-4.5,14.2-14.2,14.2-29.2s-4.8-25.4-15.3-29.5c-4-1.6-9.5-2.2-15.5-2.2h-8.3v63.5h8.2Z"/>
          <path class="cls-1" d="M939.7,100.9c0-20.5,13.1-35.4,33.9-35.4s32,14.3,32,37.2,0,2-.1,4h-46.7c0,10.1,4,17.6,14.9,17.6s10.1-3.6,12-9h19.6c-4.1,14.8-14.2,22.2-31.5,22.2s-34.1-14.3-34.1-36.5ZM987.1,93.7c-.4-9.8-6.7-15.3-14.3-15.3s-14.3,5.6-14.7,15.3h29Z"/>
          <path class="cls-1" d="M1014.5,113.7h19c0,7.3,4.1,10.7,12.2,10.7s11-2.8,11-7.1-4.9-6.7-11.1-8.3c-5.7-1.5-12.7-2.6-18.4-5.4-6.3-3-11.4-7.9-11.4-16.7,0-13.1,11.5-21.4,29.6-21.4s29.2,7.8,29.2,22.8h-18.5c-.4-7.4-4.1-9.8-11.4-9.8s-9.9,2.5-9.9,6.6,4.6,6.9,21,10.3c13.9,2.9,20.4,9.7,20.4,20s-11.5,22.1-30.4,22.1-31.1-7.8-31.3-23.7Z"/>
          <path class="cls-1" d="M1089.1,39.5h18.7v18h-18.7v-18ZM1089.1,67.3h18.7v68.3h-18.7v-68.3Z"/>
          <path class="cls-1" d="M1124.4,140.5h19.3c.3,5.3,4,9,11,9s14.3-6.2,14.3-18.8v-7.1c-5.7,7.3-13.4,10.2-20.4,10.2-15.5,0-27.5-12-27.5-32.9s12-34.8,28.6-34.8,15.3,2.5,20.5,9.7v-8.5h17.2v53.6c0,13.6-.7,17.2-2,22.1-3.4,13-14.2,19.7-31,19.7s-28.7-8.2-30-22.1ZM1168.6,101c0-11.9-5-20.6-14.4-20.6s-13.9,8.9-13.9,20.1,5.6,18.7,13.9,18.7,14.4-7.1,14.4-18.1Z"/>
          <path class="cls-1" d="M1204.3,67.3h17.3v9c4.9-6.5,13-10.2,21.6-10.2,19.6,0,22.9,13.9,22.9,31.5v38h-18.7v-37.8c0-10.1-1.7-17.6-11-17.6s-13.5,5.8-13.5,21.7v33.7h-18.7v-68.3Z"/>
        </g>
        <path class="cls-1" d="M87.5,0C39.2,0,0,39.2,0,87.5s39.2,87.5,87.5,87.5,87.5-39.2,87.5-87.5S135.8,0,87.5,0ZM87.5,153.1c-12,0-23.2-3.2-32.8-8.8V30.7c9.7-5.6,20.9-8.8,32.8-8.8,36.2,0,65.6,29.4,65.6,65.6s-29.4,65.6-65.6,65.6Z"/>
      </g>
    </g>
  </g>
</svg>