<?xml version="1.0" encoding="utf-8"?>
<!-- Generator: Adobe Illustrator 28.2.0, SVG Export Plug-In . SVG Version: 6.00 Build 0)  -->
<svg version="1.1" id="Layer_1" xmlns="http://www.w3.org/2000/svg" xmlns:xlink="http://www.w3.org/1999/xlink" x="0px" y="0px"
	 viewBox="0 0 597.8 200" style="enable-background:new 0 0 597.8 200;" xml:space="preserve">
<style type="text/css">
	.st0{fill:#333333;}
</style>
<g>
	<g>
		<path class="st0" d="M0,100c0-29.4,17.7-50,45-50c27.1,0,44.8,20,44.8,50c0,29.8-18.3,50-45,50C17.2,150,0,130.2,0,100z M69.7,100
			c0-21.3-9.1-34.4-24.7-34.4c-15.9,0-24.9,13.5-24.9,34.4c0,21.2,9.4,34.4,24.7,34.4C59.7,134.4,69.7,119.8,69.7,100z"/>
		<path class="st0" d="M101.8,92.5l7.7-22h-7.4V52h19.6v20.2l-8.5,20.2H101.8z"/>
		<path class="st0" d="M136.9,52h21.7c14.6,0,31.1,0.1,43,11.1C210.2,71,216,83.6,216,99.3c0,10.6-2.1,20-6.5,27.5
			c-11.6,19.8-28.7,21.2-53.4,21.2h-19.2V52z M164.8,131.7c6.6,0,12.6-0.5,16.8-2.5c9.7-4.5,14.2-14.2,14.2-29.2
			c0-15.5-4.8-25.4-15.3-29.5c-4-1.6-9.5-2.2-15.5-2.2h-8.3v63.5H164.8z"/>
		<path class="st0" d="M226.3,113.9c0-21.8,13.5-36,34.7-36c21.3,0,34.8,14.3,34.8,36c0,21.8-13.5,36-34.8,36
			C239.8,149.9,226.3,135.7,226.3,113.9z M276.3,113.9c0-13.8-5.3-21.8-15.3-21.8c-9.9,0-15.2,8.2-15.2,21.8
			c0,13.5,5.3,21.8,15.2,21.8C271,135.7,276.3,127.4,276.3,113.9z"/>
		<path class="st0" d="M309.5,79.8h17.3v9c4.9-6.5,13-10.2,21.6-10.2c19.6,0,22.9,13.9,22.9,31.5v38h-18.7v-37.8
			c0-10.1-1.7-17.6-11-17.6c-8.7,0-13.5,5.8-13.5,21.7V148h-18.7V79.8z"/>
		<path class="st0" d="M388.2,79.8h17.3v9c4.9-6.5,13-10.2,21.6-10.2c19.6,0,22.9,13.9,22.9,31.5v38h-18.7v-37.8
			c0-10.1-1.7-17.6-11-17.6c-8.7,0-13.5,5.8-13.5,21.7V148h-18.7V79.8z"/>
		<path class="st0" d="M462.9,113.4c0-20.5,13.1-35.4,33.9-35.4c20.9,0,32,14.3,32,37.2c0,0.7,0,2-0.1,4H482
			c0,10.1,4,17.6,14.9,17.6c6.3,0,10.1-3.6,12-9h19.6c-4.1,14.8-14.2,22.2-31.5,22.2C474.3,149.9,462.9,135.6,462.9,113.4z
			 M510.3,106.2c-0.4-9.8-6.7-15.3-14.3-15.3c-7.7,0-14.3,5.6-14.7,15.3H510.3z"/>
		<path class="st0" d="M542.8,52h18.7v96h-18.7V52z"/>
		<path class="st0" d="M579.2,52h18.7v96h-18.7V52z"/>
	</g>
</g>
</svg>
