<?xml version="1.0" encoding="utf-8"?>
<!-- Generator: Adobe Illustrator 27.9.0, SVG Export Plug-In . SVG Version: 6.00 Build 0)  -->
<svg version="1.1" id="Layer_1" xmlns="http://www.w3.org/2000/svg" xmlns:xlink="http://www.w3.org/1999/xlink" x="0px" y="0px"
	 viewBox="0 0 201 37.3" style="enable-background:new 0 0 201 37.3;" xml:space="preserve">
<g>
	<g>
		<path d="M0.5,10.6c0-6.2,4-10.1,9.7-10.1c5.7,0,9.7,3.9,9.7,10.1c0,6.2-4,10.1-9.7,10.1C4.5,20.7,0.5,16.8,0.5,10.6z M10.2,2.2
			c-4.2,0-6.2,3.4-6.2,8.4c0,5,2,8.5,6.2,8.5c4.2,0,6.2-3.4,6.2-8.5C16.4,5.6,14.4,2.2,10.2,2.2z"/>
		<path d="M27,1h3.5v3.5l-2,4.2h-1.3l1.2-4.2H27V1z"/>
		<path d="M44.9,20.4h-7.3v-1l1.3-0.1c0.7-0.1,0.8-0.3,0.8-0.9V3c0-0.5-0.1-0.9-0.8-0.9l-1.3-0.1V1h7.3c6.9,0,11.5,2.8,11.5,9.7
			C56.4,17.6,51.8,20.4,44.9,20.4z M45.2,2.6h-2.1v16.1h2.1c5.2,0,7.7-2.5,7.7-8.1C52.8,5.1,50.4,2.6,45.2,2.6z"/>
		<path d="M62.9,10.6c0-6.2,4-10.1,9.7-10.1c5.7,0,9.7,3.9,9.7,10.1c0,6.2-4,10.1-9.7,10.1C67,20.7,62.9,16.8,62.9,10.6z M72.7,2.2
			c-4.2,0-6.2,3.4-6.2,8.4c0,5,2,8.5,6.2,8.5c4.2,0,6.2-3.4,6.2-8.5C78.8,5.6,76.9,2.2,72.7,2.2z"/>
		<path d="M106,20.4h-1.8L92.6,5.3v13c0,0.5,0.1,0.8,0.8,0.9l1.3,0.1v1h-6.2v-1l1.3-0.1c0.7-0.1,0.8-0.3,0.8-0.9V3
			c0-0.5-0.1-0.9-0.8-0.9l-1.3-0.1V1h4.9L104,14.8V3c0-0.5-0.1-0.8-0.8-0.9L101.9,2V1h6.2v1l-1.3,0.1C106.1,2.2,106,2.5,106,3V20.4z
			"/>
		<path d="M132.1,20.4h-1.8L118.7,5.3v13c0,0.5,0.1,0.8,0.8,0.9l1.3,0.1v1h-6.2v-1l1.3-0.1c0.7-0.1,0.8-0.3,0.8-0.9V3
			c0-0.5-0.1-0.9-0.8-0.9l-1.3-0.1V1h4.9l10.7,13.9V3c0-0.5-0.1-0.8-0.8-0.9L128,2V1h6.2v1l-1.3,0.1c-0.7,0.1-0.8,0.3-0.8,0.9V20.4z
			"/>
		<path d="M156.4,1v5.9h-1.2L155,5.1c-0.3-2.5-0.8-2.5-3.4-2.5h-5.4v6.9h7.9v1.7h-7.9v7.5h5.7c2.6,0,3.1,0,3.4-2.5l0.2-1.8h1.2v5.9
			h-16v-1l1.3-0.1c0.7-0.1,0.8-0.3,0.8-0.9V3c0-0.5-0.1-0.9-0.8-0.9l-1.3-0.1V1H156.4z"/>
		<path d="M163.6,19.3l1.3-0.1c0.7-0.1,0.8-0.3,0.8-0.9V3c0-0.5-0.1-0.9-0.8-0.9l-1.3-0.1V1h7.6v1l-1.3,0.1
			c-0.7,0.1-0.8,0.4-0.8,0.9v15.7h5.1c2.6,0,3.1,0,3.4-2.5l0.2-1.8h1.2v5.9h-15.4V19.3z"/>
		<path d="M185.1,19.3l1.3-0.1c0.7-0.1,0.8-0.3,0.8-0.9V3c0-0.5-0.1-0.9-0.8-0.9l-1.3-0.1V1h7.6v1l-1.3,0.1
			c-0.7,0.1-0.8,0.4-0.8,0.9v15.7h5.1c2.6,0,3.1,0,3.4-2.5l0.2-1.8h1.2v5.9h-15.4V19.3z"/>
	</g>
	<g>
		<path d="M140.7,26.5h2.3c1.5,0,3.3,0,4.5,1.2c0.9,0.8,1.5,2.2,1.5,3.8c0,1.1-0.2,2.1-0.7,2.9c-1.2,2.1-3,2.2-5.6,2.2h-2V26.5z
			 M143.6,34.9c0.7,0,1.3-0.1,1.8-0.3c1-0.5,1.5-1.5,1.5-3.1c0-1.6-0.5-2.7-1.6-3.1c-0.4-0.2-1-0.2-1.6-0.2h-0.9v6.7H143.6z"/>
		<path d="M152.5,26.5h6.7v1.7h-4.7v2.4h4.3v1.7h-4.3v2.5h4.8v1.7h-6.9V26.5z"/>
		<path d="M162.4,33.2h2.2c0,1.2,0.8,2,2,2c1,0,1.7-0.5,1.7-1.2c0-0.7-0.4-1-1.7-1.4l-1.7-0.5c-1.4-0.4-2.3-1.5-2.3-2.8
			c0-1.8,1.6-3,3.8-3c2.2,0,3.7,1.3,3.7,3.4H168c0-1-0.7-1.7-1.7-1.7c-0.9,0-1.5,0.5-1.5,1.2c0,0.6,0.3,0.9,1.6,1.2l1.4,0.4
			c1.8,0.5,2.6,1.4,2.6,2.8c0,1.9-1.6,3.2-3.9,3.2C164.1,36.8,162.4,35.4,162.4,33.2z"/>
		<path d="M173.9,26.5h2v10.1h-2V26.5z"/>
		<path d="M179.5,31.6c0-3,1.9-5.3,4.7-5.3c2.3,0,4,1.3,4.2,3.3h-2.1c-0.2-1-1.1-1.6-2.1-1.6c-1.6,0-2.6,1.5-2.6,3.7
			c0,2.1,0.9,3.5,2.5,3.5c1.2,0,2.3-0.8,2.3-2.2v-0.2h-2V31h4v5.6h-1.7v-1.2c-0.5,0.8-1.7,1.3-2.8,1.3
			C181.2,36.8,179.5,34.9,179.5,31.6z"/>
		<path d="M192.1,26.5h2.9l2.3,5c0.4,0.9,0.9,2,1.2,2.9h0.1c0-0.9-0.1-2-0.1-3l0-5h1.9v10.1h-2.9l-2.3-5c-0.6-1.3-0.9-2.1-1.2-3
			h-0.1c0,0.9,0.1,2.1,0.1,3l0,5h-1.9V26.5z"/>
	</g>
</g>
</svg>
