<?xml version="1.0" encoding="UTF-8"?>
<svg xmlns="http://www.w3.org/2000/svg" version="1.1" viewBox="0 0 1200 720">
  <defs>
    <style>
      .cls-1 {
        fill: #33661d;
      }

      .cls-2 {
        fill: #91c748;
      }

      .cls-3 {
        fill: #fff;
      }
    </style>
  </defs>
  <!-- Generator: Adobe Illustrator 28.7.3, SVG Export Plug-In . SVG Version: 1.2.0 Build 164)  -->
  <g>
    <g id="Layer_1">
      <rect class="cls-2" width="1200" height="720"/>
      <g>
        <path class="cls-1" d="M231.9,241.5h8.9l20.9,68.4,20.9-68.4h8.9v100h-10.4v-64l-19.4,61.2-19.4-61.2v64h-10.3v-100Z"/>
        <path class="cls-3" d="M368.2,262.3v58.4h20v20.8h-61.3v-20.8h20v-58.4h-20v-20.8h61.3v20.8h-20Z"/>
        <path class="cls-3" d="M453.2,309.1l-16.6,32.5h-22.9l26.9-50.3-26.5-49.7h23.2l16,31.4,16-31.4h22.9l-26.3,49.2,27.1,50.8h-23.3l-16.6-32.5Z"/>
        <path class="cls-3" d="M514.5,312.7c-.4-3.3-.5-6.4-.5-21.1s0-17.8.5-21.1c2.1-17.3,16-30.4,34.7-30.4s32.6,13.1,34.7,30.4c.4,3.3.5,6.4.5,21.1s0,17.8-.5,21.1c-2.1,17.3-16,30.4-34.7,30.4s-32.6-13.1-34.7-30.4ZM562.7,310.4c.3-2.3.3-5.6.3-18.9s0-16.6-.3-18.9c-.8-6.7-6.1-11.7-13.5-11.7s-12.7,5-13.5,11.7c-.3,2.3-.3,5.6-.3,18.9s0,16.6.3,18.9c.8,6.7,6.1,11.7,13.5,11.7s12.7-5,13.5-11.7Z"/>
        <path class="cls-3" d="M614.4,241.5h20.9v79.2h43.1v20.8h-64v-100Z"/>
        <path class="cls-3" d="M706.2,312.7c-.4-3.3-.5-6.4-.5-21.1s0-17.8.5-21.1c2.1-17.3,16-30.4,34.7-30.4s32.6,13.1,34.7,30.4c.4,3.3.5,6.4.5,21.1s0,17.8-.5,21.1c-2.1,17.3-16,30.4-34.7,30.4s-32.6-13.1-34.7-30.4ZM754.4,310.4c.3-2.3.3-5.6.3-18.9s0-16.6-.3-18.9c-.8-6.7-6.1-11.7-13.5-11.7s-12.7,5-13.5,11.7c-.3,2.3-.3,5.6-.3,18.9s0,16.6.3,18.9c.8,6.7,6.1,11.7,13.5,11.7s12.7-5,13.5-11.7Z"/>
        <path class="cls-3" d="M871.9,288.7c0,17.4-.1,20.7-.5,24-2.1,17.3-16,30.4-34.6,30.4s-32.6-13.1-34.7-30.4c-.4-3.3-.5-6.3-.5-21.1s0-17.8.5-21.1c2.1-17.3,16-30.4,34.7-30.4s34.8,15.2,35,35h-21.2c0-8.2-5.7-14-13.8-14s-12.7,5-13.5,11.7c-.3,2.3-.3,5.6-.3,18.9s0,16.6.3,18.9c.8,6.7,6.1,11.7,13.5,11.7s13.6-5.7,13.8-13.7h-16.6v-19.7h38Z"/>
        <path class="cls-3" d="M921.9,309.4l-29.3-67.9h22.9l17.2,40.3,17.3-40.3h22.6l-29.3,67.3v32.7h-21.3v-32.2Z"/>
        <path class="cls-3" d="M227.4,378.5h19.5l14.9,48.5,14.6-48.5h19.3v100h-20.1v-46.9l-14,45.5-14.4-45.5v46.9h-19.9v-100Z"/>
        <path class="cls-1" d="M362.7,388.6v79.7h24.5v10.2h-59.4v-10.2h24.5v-79.7h-24.5v-10.2h59.4v10.2h-24.5Z"/>
        <path class="cls-1" d="M453.4,437.1l-24.1,41.4h-12l29.6-50.2-29.2-49.8h12.2l23.7,40.7,23.9-40.7h11.9l-29.2,49.4,29.7,50.6h-12.3l-24.1-41.4Z"/>
        <path class="cls-1" d="M645,480c-17.7,0-30.4-13.1-30.4-30.2v-71.4h10.4v71.2c0,11.4,8.4,20.2,20,20.2s20-8.8,20-20.2v-71.2h10.4v71.4c0,17-12.6,30.2-30.4,30.2Z"/>
        <path class="cls-1" d="M774.6,411.9c0,19.4-14,33.4-34.1,33.4h-18.9v33.2h-10.4v-100h29.3c20.1,0,34.1,14,34.1,33.4ZM764.1,411.9c0-13.6-9.8-23.3-23.4-23.3h-19.1v46.5h19.1c13.6,0,23.4-9.8,23.4-23.3Z"/>
        <path class="cls-1" d="M584.3,423.4v10.2h-70.3v-10.2"/>
      </g>
    </g>
  </g>
</svg>